#N canvas 129 119 462 295 10;
#X obj 27 22 v3_+;
#X msg 41 90 2 1 0;
#X msg 95 92 3 4 5;
#X obj 27 128 v3_+ 0 1 2;
#X obj 27 162 unpack f f f;
#X floatatom 27 185 5 0 0 0 - - -;
#X floatatom 66 185 5 0 0 0 - - -;
#X floatatom 106 186 5 0 0 0 - - -;
#X text 57 22 - adds two vectors;
#X msg 15 67 1 2 3;
#X text 187 68 args: <X> <Y> <Z>;
#X text 185 98 1st inlet: accepts list of 3 floats;
#X text 185 118 2nd inlet: accepts list of 3 floats;
#X text 187 158 outlet: list of 3 floats;
#X msg 231 211 version 0.0.1;
#X connect 1 0 3 0;
#X connect 2 0 3 1;
#X connect 3 0 4 0;
#X connect 4 0 5 0;
#X connect 4 1 6 0;
#X connect 4 2 7 0;
#X connect 9 0 3 0;
