#N canvas 148 79 415 227 10;
#X obj 35 48 unpack f f f;
#X obj 35 153 pack f f f;
#X text 211 153 V =;
#X obj 168 49 unpack f f f;
#X text 128 10 A;
#X text 263 12 B;
#X text 135 181 V;
#X obj 35 9 inlet vector;
#X obj 168 12 inlet vector;
#X obj 35 178 outlet vector;
#X obj 35 121 - \$1;
#X obj 74 122 - \$2;
#X obj 114 122 - \$3;
#X msg 290 76 version 0.0.1;
#X text 245 137 | Ax-Bx |;
#X text 245 153 | Ay-By |;
#X text 245 169 | Ay-By |;
#X text 318 153 = A - B;
#X connect 0 0 10 0;
#X connect 0 1 11 0;
#X connect 0 2 12 0;
#X connect 1 0 9 0;
#X connect 3 0 10 1;
#X connect 3 1 11 1;
#X connect 3 2 12 1;
#X connect 7 0 0 0;
#X connect 8 0 3 0;
#X connect 10 0 1 0;
#X connect 11 0 1 1;
#X connect 12 0 1 2;
