#N canvas 146 129 450 300 10;
#X msg 38 101 2 1 0;
#X msg 92 103 3 4 5;
#X obj 24 173 unpack f f f;
#X floatatom 24 196 5 0 0 0 - - -;
#X floatatom 63 196 5 0 0 0 - - -;
#X floatatom 103 197 5 0 0 0 - - -;
#X msg 12 78 1 2 3;
#X text 184 79 args: <X> <Y> <Z>;
#X text 182 109 1st inlet: accepts list of 3 floats;
#X text 182 129 2nd inlet: accepts list of 3 floats;
#X text 54 33 - subtracts a vector from another;
#X obj 24 139 v_- 0 1 2;
#X obj 24 33 v_-;
#X text 179 164 outlet: list of 3 floats;
#X msg 209 212 version 0.0.1;
#X connect 0 0 11 0;
#X connect 1 0 11 1;
#X connect 2 0 3 0;
#X connect 2 1 4 0;
#X connect 2 2 5 0;
#X connect 6 0 11 0;
#X connect 11 0 2 0;
