#N canvas 110 65 473 370 10;
#X obj 23 228 expr acos($f1);
#X obj 23 21 inlet vector;
#X obj 234 22 inlet vector;
#X obj 23 170 /;
#X obj 23 200 /;
#X obj 23 273 outlet float;
#X text 118 23 A;
#X text 328 24 B;
#X text 257 195 .;
#X text 151 198 rho = arccos((A;
#X text 266 198 B)/(|A|*|B|));
#X text 118 273 rho;
#X text 29 310 computes the angle (radian) between both incoming vectors
;
#X obj 23 50 t l l;
#X obj 352 27 loadbang;
#X obj 352 50 t b b b;
#X obj 352 73 \$1;
#X obj 384 73 \$2;
#X obj 417 74 \$3;
#X obj 352 96 pack f f f;
#X obj 138 119 v_mag;
#X obj 234 147 v_mag;
#X obj 23 118 v_dot \$1 \$2 \$3;
#X msg 258 259 version 0.0.1;
#X connect 0 0 5 0;
#X connect 1 0 13 0;
#X connect 2 0 21 0;
#X connect 2 0 22 1;
#X connect 3 0 4 0;
#X connect 4 0 0 0;
#X connect 13 0 22 0;
#X connect 13 1 20 0;
#X connect 14 0 15 0;
#X connect 15 0 16 0;
#X connect 15 1 17 0;
#X connect 15 2 18 0;
#X connect 16 0 19 0;
#X connect 17 0 19 1;
#X connect 18 0 19 2;
#X connect 19 0 21 0;
#X connect 20 0 3 1;
#X connect 21 0 4 1;
#X connect 22 0 3 0;
