#N canvas 350 238 484 264 10;
#X msg 127 92 1 0 0;
#X text 194 70 args: <X> <Y> <Z>;
#X text 192 100 1st inlet: accepts list of 3 floats;
#X text 192 120 2nd inlet: accepts list of 3 floats;
#X floatatom 24 225 5 0 0 0 - - -;
#X msg 50 67 0 -1 0;
#X text 80 28 - computes the angle between both incoming vectors;
#X text 191 160 outlet: float <angle in radian format>;
#X obj 24 170 / 3.14159;
#X obj 24 191 * 180;
#X msg 62 92 -1 0 0;
#X msg 9 89 1 1 0;
#X obj 24 139 v_angle 0 1 0;
#X msg 130 114 0 1 0;
#X obj 22 27 v_angle;
#X msg 239 212 version 0.0.1;
#X connect 0 0 12 1;
#X connect 5 0 12 0;
#X connect 8 0 9 0;
#X connect 9 0 4 0;
#X connect 10 0 12 0;
#X connect 11 0 12 0;
#X connect 12 0 8 0;
#X connect 13 0 12 1;
