#N canvas 195 179 453 311 10;
#X text 199 90 args: none;
#X text 197 120 inlet: accepts list of 3 floats;
#X obj 24 225 v3_mag;
#X obj 24 33 v3_normalize;
#X text 195 143 outlet: list of 3 floats <X Y Z>;
#X text 112 33 - normalizes the incoming vector;
#X obj 24 139 v3_normalize;
#X msg 17 92 7 0 0;
#X msg 67 70 2 1 3;
#X msg 68 109 13.23 3.1 9.86;
#X obj 44 176 unpack f f f;
#X floatatom 44 201 5 0 0 0 - - -;
#X floatatom 83 201 5 0 0 0 - - -;
#X floatatom 123 201 5 0 0 0 - - -;
#X floatatom 24 256 5 0 0 0 - - -;
#X text 74 259 the magnitude of the output vector is always 1;
#X msg 234 202 version 0.0.1;
#X connect 2 0 14 0;
#X connect 6 0 10 0;
#X connect 6 0 2 0;
#X connect 7 0 6 0;
#X connect 8 0 6 0;
#X connect 9 0 6 0;
#X connect 10 0 11 0;
#X connect 10 1 12 0;
#X connect 10 2 13 0;
