#N canvas 94 150 478 315 10;
#X obj 24 177 unpack f f f;
#X floatatom 24 202 5 0 0 0 - - -;
#X floatatom 63 202 5 0 0 0 - - -;
#X floatatom 103 202 5 0 0 0 - - -;
#X text 54 28 - computes the cross product of two vectors;
#X obj 24 139 v_x 0 1 0;
#X msg 9 89 1 0 0;
#X msg 50 67 0 1 0;
#X msg 62 92 0 0 1;
#X msg 127 92 1 0 0;
#X msg 130 114 0 0 1;
#X obj 22 27 v_x;
#X text 17 248 the outcoming vector is orthogonal to both incoming
vectors;
#X text 195 81 args: <X> <Y> <Z>;
#X text 193 111 1st inlet: accepts list of 3 floats;
#X text 193 131 2nd inlet: accepts list of 3 floats;
#X text 195 171 outlet: list of 3 floats;
#X msg 281 209 version 0.0.1;
#X connect 0 0 1 0;
#X connect 0 1 2 0;
#X connect 0 2 3 0;
#X connect 5 0 0 0;
#X connect 6 0 5 0;
#X connect 7 0 5 0;
#X connect 8 0 5 0;
#X connect 9 0 5 1;
#X connect 10 0 5 1;
