#N canvas 13 133 200 200 10;
#N canvas 485 175 420 300 META 0;
#X text 10 50 NAME vectorabs;
#X text 10 30 AUTHOR Roman Haefeli;
#X text 10 10 VERSION 0.1;
#X text 10 70 LICENSE GPL-2;
#X restore 10 10 pd META;
